<svg xmlns="http://www.w3.org/2000/svg" viewBox="0 0 901.87 152.38">
    <g id="s-begin">
        <path data-start="0" data-duration="65" d="M56.23,67q-.12-.54-.27-1.28a4.41,4.41,0,0,0-.57-1.43,3.35,3.35,0,0,0-1.16-1.13,4,4,0,0,0-2.06-.45,4.18,4.18,0,0,0-2.68,1,3,3,0,0,0-1.19,2.5,4,4,0,0,0,.3,1.67,3.61,3.61,0,0,0,1.28,1.34,20.8,20.8,0,0,0,2.77,1.55q1.79.86,4.77,2.17a28.92,28.92,0,0,1,5.09,2.8,14.33,14.33,0,0,1,3.16,3,9.38,9.38,0,0,1,1.61,3.25,14.11,14.11,0,0,1,.45,3.6,15.82,15.82,0,0,1-.77,4.85,11.31,11.31,0,0,1-2.56,4.32,13.39,13.39,0,0,1-4.74,3.13,19.14,19.14,0,0,1-7.3,1.22,19.17,19.17,0,0,1-7.86-1.4,13.76,13.76,0,0,1-4.88-3.48,11.81,11.81,0,0,1-2.47-4.53,17,17,0,0,1-.69-4.59V83.64h11.2a8,8,0,0,0,.51,3.1,5,5,0,0,0,1.25,1.85,3.82,3.82,0,0,0,1.52.86,5.16,5.16,0,0,0,1.31.21,3.91,3.91,0,0,0,3.16-1.34,4.4,4.4,0,0,0,1.13-2.89,4.09,4.09,0,0,0-.39-1.85,3.88,3.88,0,0,0-1.37-1.43,18.59,18.59,0,0,0-2.65-1.4q-1.67-.74-4.23-1.82-1.19-.48-3-1.34a16.37,16.37,0,0,1-3.54-2.32,13.33,13.33,0,0,1-3-3.66,10.57,10.57,0,0,1-1.25-5.3,11,11,0,0,1,1.37-5.51A13.3,13.3,0,0,1,42,56.71,16.2,16.2,0,0,1,47,54.18a18.11,18.11,0,0,1,12.06.36A12.29,12.29,0,0,1,66,60.67a12.89,12.89,0,0,1,.86,2.26A12.2,12.2,0,0,1,67.22,65q.09,1,.15,2Z"/>
        <path data-start="0" data-duration="75" d="M57.59,64q-.16-.71-.36-1.7a5.87,5.87,0,0,0-.75-1.9,4.46,4.46,0,0,0-1.55-1.51,5.32,5.32,0,0,0-2.73-.59,5.57,5.57,0,0,0-3.57,1.27,4.06,4.06,0,0,0-1.58,3.33,5.37,5.37,0,0,0,.4,2.22,4.8,4.8,0,0,0,1.7,1.78,27.67,27.67,0,0,0,3.69,2.06q2.38,1.15,6.34,2.89A38.47,38.47,0,0,1,66,75.55a19.07,19.07,0,0,1,4.2,4,12.47,12.47,0,0,1,2.14,4.32,18.77,18.77,0,0,1,.59,4.79,21,21,0,0,1-1,6.46,15,15,0,0,1-3.41,5.75,17.81,17.81,0,0,1-6.3,4.16,25.46,25.46,0,0,1-9.71,1.63A25.5,25.5,0,0,1,42,104.76a18.3,18.3,0,0,1-6.5-4.64,15.71,15.71,0,0,1-3.29-6,22.61,22.61,0,0,1-.91-6.1v-1.9h14.9a10.65,10.65,0,0,0,.67,4.12,6.68,6.68,0,0,0,1.66,2.46,5.07,5.07,0,0,0,2,1.15,6.86,6.86,0,0,0,1.74.28,5.2,5.2,0,0,0,4.2-1.78A5.85,5.85,0,0,0,58,88.47,5.44,5.44,0,0,0,57.47,86a5.16,5.16,0,0,0-1.82-1.9,24.73,24.73,0,0,0-3.53-1.86q-2.22-1-5.63-2.42-1.59-.63-4-1.78A21.78,21.78,0,0,1,37.78,75a17.73,17.73,0,0,1-4-4.87A14.06,14.06,0,0,1,32.15,63,14.57,14.57,0,0,1,34,55.7a17.7,17.7,0,0,1,4.75-5.43,21.55,21.55,0,0,1,6.58-3.37,24.09,24.09,0,0,1,16,.48,16.35,16.35,0,0,1,9.19,8.16,17.14,17.14,0,0,1,1.15,3,16.23,16.23,0,0,1,.52,2.81q.12,1.35.2,2.61Z"/>
        <path data-start="0" data-duration="85" d="M59,61q-.2-.89-.45-2.13a7.33,7.33,0,0,0-.94-2.37,5.56,5.56,0,0,0-1.93-1.88,6.64,6.64,0,0,0-3.41-.74,7,7,0,0,0-4.45,1.58,5.06,5.06,0,0,0-2,4.15,6.7,6.7,0,0,0,.49,2.77,6,6,0,0,0,2.13,2.23A34.54,34.54,0,0,0,53,67.14q3,1.44,7.91,3.61A48,48,0,0,1,69.4,75.4a23.8,23.8,0,0,1,5.24,4.95,15.57,15.57,0,0,1,2.67,5.39,23.43,23.43,0,0,1,.74,6,26.27,26.27,0,0,1-1.28,8.06A18.77,18.77,0,0,1,72.51,107a22.23,22.23,0,0,1-7.86,5.19,31.78,31.78,0,0,1-12.12,2,31.83,31.83,0,0,1-13.06-2.33,22.84,22.84,0,0,1-8.11-5.79,19.61,19.61,0,0,1-4.11-7.52,28.23,28.23,0,0,1-1.14-7.62V88.55h18.6a13.3,13.3,0,0,0,.84,5.14,8.33,8.33,0,0,0,2.08,3.07,6.33,6.33,0,0,0,2.52,1.43,8.56,8.56,0,0,0,2.18.35,6.49,6.49,0,0,0,5.24-2.23,7.3,7.3,0,0,0,1.88-4.8,6.8,6.8,0,0,0-.64-3.07,6.44,6.44,0,0,0-2.28-2.37,30.87,30.87,0,0,0-4.4-2.32q-2.77-1.24-7-3-2-.79-5-2.23a27.19,27.19,0,0,1-5.88-3.86,22.13,22.13,0,0,1-4.95-6.08,17.56,17.56,0,0,1-2.08-8.8,18.19,18.19,0,0,1,2.27-9.15,22.09,22.09,0,0,1,5.94-6.78,26.9,26.9,0,0,1,8.21-4.2,30.07,30.07,0,0,1,20,.59A20.4,20.4,0,0,1,75.13,50.42a21.4,21.4,0,0,1,1.43,3.76,20.26,20.26,0,0,1,.64,3.51q.15,1.68.25,3.26Z"/>
        <path data-start="0" data-duration="95" d="M60.33,57.92q-.24-1.07-.54-2.55a8.79,8.79,0,0,0-1.13-2.85,6.67,6.67,0,0,0-2.31-2.25,8,8,0,0,0-4.09-.89,8.33,8.33,0,0,0-5.34,1.9,6.07,6.07,0,0,0-2.37,5,8,8,0,0,0,.59,3.32,7.18,7.18,0,0,0,2.55,2.67,41.41,41.41,0,0,0,5.52,3.08q3.56,1.72,9.49,4.33a57.56,57.56,0,0,1,10.14,5.57,28.53,28.53,0,0,1,6.29,5.93,18.66,18.66,0,0,1,3.2,6.46,28.09,28.09,0,0,1,.89,7.17,31.49,31.49,0,0,1-1.54,9.66,22.51,22.51,0,0,1-5.1,8.6,26.65,26.65,0,0,1-9.43,6.23,38.1,38.1,0,0,1-14.53,2.43q-9.49,0-15.66-2.79A27.39,27.39,0,0,1,27.24,112a23.51,23.51,0,0,1-4.92-9A33.84,33.84,0,0,1,21,93.86V91h22.3a15.94,15.94,0,0,0,1,6.17,10,10,0,0,0,2.49,3.68,7.59,7.59,0,0,0,3,1.72,10.27,10.27,0,0,0,2.61.41,7.78,7.78,0,0,0,6.29-2.67,8.76,8.76,0,0,0,2.25-5.75,8.15,8.15,0,0,0-.77-3.68A7.72,7.72,0,0,0,57.42,88a37,37,0,0,0-5.28-2.79q-3.32-1.48-8.42-3.62-2.37-.95-6-2.67a32.6,32.6,0,0,1-7.06-4.62,26.53,26.53,0,0,1-5.93-7.29A21,21,0,0,1,22.26,56.5a21.81,21.81,0,0,1,2.73-11,26.48,26.48,0,0,1,7.12-8.12,32.25,32.25,0,0,1,9.84-5,36.05,36.05,0,0,1,24,.71A24.46,24.46,0,0,1,79.72,45.3a25.65,25.65,0,0,1,1.72,4.51A24.28,24.28,0,0,1,82.21,54q.18,2,.3,3.91Z"/>
        <path data-start="0" data-duration="95" d="M61.7,54.9q-.28-1.24-.62-3a10.25,10.25,0,0,0-1.31-3.32A7.77,7.77,0,0,0,57.06,46a9.29,9.29,0,0,0-4.77-1,9.71,9.71,0,0,0-6.22,2.21A7.08,7.08,0,0,0,43.31,53,9.37,9.37,0,0,0,44,56.83a8.38,8.38,0,0,0,3,3.11,48.28,48.28,0,0,0,6.43,3.59q4.15,2,11.06,5a67.11,67.11,0,0,1,11.82,6.5A33.27,33.27,0,0,1,83.61,82a21.76,21.76,0,0,1,3.73,7.54,32.75,32.75,0,0,1,1,8.36,36.72,36.72,0,0,1-1.8,11.27,26.24,26.24,0,0,1-5.95,10,31.07,31.07,0,0,1-11,7.26q-6.85,2.83-16.94,2.84-11.06,0-18.25-3.25a31.93,31.93,0,0,1-11.34-8.09,27.41,27.41,0,0,1-5.74-10.51,39.45,39.45,0,0,1-1.59-10.65V93.47h26A18.59,18.59,0,0,0,43,100.66a11.65,11.65,0,0,0,2.9,4.29,8.85,8.85,0,0,0,3.53,2,12,12,0,0,0,3,.48,9.08,9.08,0,0,0,7.33-3.11,10.21,10.21,0,0,0,2.63-6.71,9.5,9.5,0,0,0-.9-4.29A9,9,0,0,0,58.31,90a43.14,43.14,0,0,0-6.15-3.25Q48.28,85,42.34,82.55q-2.77-1.1-7-3.11A38,38,0,0,1,27.13,74a30.93,30.93,0,0,1-6.91-8.5,24.54,24.54,0,0,1-2.9-12.3,25.43,25.43,0,0,1,3.18-12.79A30.87,30.87,0,0,1,28.79,31,37.6,37.6,0,0,1,40.26,25.1a42,42,0,0,1,28,.83,28.52,28.52,0,0,1,16,14.24,29.91,29.91,0,0,1,2,5.25,28.31,28.31,0,0,1,.9,4.91q.21,2.35.35,4.56Z"/>
        <path data-start="0" data-duration="85" d="M63.06,51.87q-.32-1.42-.71-3.39a11.7,11.7,0,0,0-1.5-3.79,8.88,8.88,0,0,0-3.08-3,10.61,10.61,0,0,0-5.45-1.18A11.09,11.09,0,0,0,45.22,43a8.08,8.08,0,0,0-3.16,6.63,10.7,10.7,0,0,0,.79,4.42,9.57,9.57,0,0,0,3.4,3.55,55.15,55.15,0,0,0,7.34,4.11Q58.33,64,66.22,67.5a76.66,76.66,0,0,1,13.5,7.42,38,38,0,0,1,8.37,7.9,24.86,24.86,0,0,1,4.26,8.61A37.41,37.41,0,0,1,93.54,101a41.94,41.94,0,0,1-2.05,12.87,30,30,0,0,1-6.79,11.45,35.49,35.49,0,0,1-12.55,8.29q-7.82,3.24-19.35,3.24-12.64,0-20.85-3.71A36.47,36.47,0,0,1,19,123.89a31.31,31.31,0,0,1-6.56-12,45.07,45.07,0,0,1-1.82-12.16V95.93H40.32a21.23,21.23,0,0,0,1.34,8.21A13.31,13.31,0,0,0,45,109a10.11,10.11,0,0,0,4,2.29,13.67,13.67,0,0,0,3.47.55,10.37,10.37,0,0,0,8.37-3.55,11.66,11.66,0,0,0,3-7.66,10.85,10.85,0,0,0-1-4.9A10.28,10.28,0,0,0,59.19,92a49.28,49.28,0,0,0-7-3.71q-4.42-2-11.21-4.82-3.16-1.26-8-3.55a43.41,43.41,0,0,1-9.4-6.16A35.34,35.34,0,0,1,15.68,64,28,28,0,0,1,12.36,50,29,29,0,0,1,16,35.36a35.27,35.27,0,0,1,9.48-10.82,43,43,0,0,1,13.11-6.71,48,48,0,0,1,32,.95A32.58,32.58,0,0,1,88.89,35a34.16,34.16,0,0,1,2.29,6,32.34,32.34,0,0,1,1,5.61q.24,2.69.39,5.21Z"/>
        <path data-start="0" data-duration="75" d="M64.43,48.84q-.36-1.6-.8-3.82a13.16,13.16,0,0,0-1.69-4.26,10,10,0,0,0-3.46-3.37A11.93,11.93,0,0,0,52.35,36a12.47,12.47,0,0,0-8,2.84,9.09,9.09,0,0,0-3.55,7.46,12,12,0,0,0,.89,5,10.76,10.76,0,0,0,3.82,4,62,62,0,0,0,8.26,4.62Q59.1,62.51,68,66.42a86.21,86.21,0,0,1,15.18,8.35,42.73,42.73,0,0,1,9.41,8.88,28,28,0,0,1,4.79,9.68,42.07,42.07,0,0,1,1.33,10.75,47.16,47.16,0,0,1-2.31,14.47,33.71,33.71,0,0,1-7.64,12.88,39.92,39.92,0,0,1-14.12,9.32q-8.79,3.64-21.76,3.64-14.21,0-23.45-4.17a41,41,0,0,1-14.56-10.39,35.21,35.21,0,0,1-7.37-13.5,50.68,50.68,0,0,1-2-13.67V98.39H38.85a23.88,23.88,0,0,0,1.51,9.24,15,15,0,0,0,3.73,5.51,11.37,11.37,0,0,0,4.53,2.58,15.38,15.38,0,0,0,3.91.62q6,0,9.41-4a13.11,13.11,0,0,0,3.38-8.61,12.2,12.2,0,0,0-1.16-5.51,11.56,11.56,0,0,0-4.09-4.26,55.42,55.42,0,0,0-7.9-4.17q-5-2.22-12.61-5.42-3.56-1.42-9-4A48.82,48.82,0,0,1,20,73.44a39.74,39.74,0,0,1-8.88-10.92A31.52,31.52,0,0,1,7.42,46.71,32.67,32.67,0,0,1,11.5,30.28,39.66,39.66,0,0,1,22.16,18.11,48.3,48.3,0,0,1,36.9,10.56a54,54,0,0,1,36,1.07,36.63,36.63,0,0,1,20.6,18.29A38.42,38.42,0,0,1,96,36.67,36.37,36.37,0,0,1,97.2,43q.27,3,.44,5.86Z"/>
        <path data-start="0" data-duration="65" d="M65.8,45.81q-.4-1.77-.89-4.24A14.62,14.62,0,0,0,63,36.83a11.09,11.09,0,0,0-3.85-3.75,13.25,13.25,0,0,0-6.81-1.48,13.86,13.86,0,0,0-8.88,3.16A10.1,10.1,0,0,0,39.56,43a13.37,13.37,0,0,0,1,5.52A12,12,0,0,0,44.79,53,68.89,68.89,0,0,0,54,58.14q5.92,2.86,15.78,7.2a95.76,95.76,0,0,1,16.87,9.27,47.46,47.46,0,0,1,10.46,9.86,31,31,0,0,1,5.33,10.75,46.73,46.73,0,0,1,1.48,11.94,52.39,52.39,0,0,1-2.56,16.08,37.44,37.44,0,0,1-8.48,14.3A44.34,44.34,0,0,1,77.14,147.9q-9.77,4-24.17,4-15.79,0-26-4.64a45.56,45.56,0,0,1-16.18-11.54,39.11,39.11,0,0,1-8.19-15A56.3,56.3,0,0,1,.3,105.58v-4.74H37.39a26.52,26.52,0,0,0,1.68,10.26,16.62,16.62,0,0,0,4.14,6.12,12.63,12.63,0,0,0,5,2.86,17.08,17.08,0,0,0,4.34.69q6.7,0,10.46-4.44a14.57,14.57,0,0,0,3.75-9.57,13.55,13.55,0,0,0-1.28-6.12A12.84,12.84,0,0,0,61,95.92a61.56,61.56,0,0,0-8.78-4.64q-5.53-2.47-14-6-4-1.57-10-4.44a54.23,54.23,0,0,1-11.74-7.69A44.14,44.14,0,0,1,6.61,61Q2.47,53.7,2.47,43.44A36.28,36.28,0,0,1,7,25.19,44.05,44.05,0,0,1,18.84,11.68,53.65,53.65,0,0,1,35.22,3.29a60,60,0,0,1,40,1.18A40.69,40.69,0,0,1,98.05,24.8a42.67,42.67,0,0,1,2.86,7.5,40.4,40.4,0,0,1,1.28,7q.29,3.36.49,6.51Z"/>
    </g>
    <g id="p">
        <path data-start="10" data-duration="95" d="M211.53,74.52h4.59q.77,0,2-.09a7.1,7.1,0,0,0,2.32-.57,4.63,4.63,0,0,0,1.91-1.58,5.12,5.12,0,0,0,.8-3.07,4.72,4.72,0,0,0-.83-3,4.94,4.94,0,0,0-2-1.52,7.82,7.82,0,0,0-2.44-.57Q216.59,64,215.7,64h-4.17ZM200.75,54.15h14.42a49,49,0,0,1,5.21.24,26.08,26.08,0,0,1,3.75.66,11.62,11.62,0,0,1,2.65,1,14.12,14.12,0,0,1,2,1.31,13.25,13.25,0,0,1,3.9,5.21A16.63,16.63,0,0,1,233.93,69a17.8,17.8,0,0,1-.33,3.37,16.93,16.93,0,0,1-2.41,6,9.67,9.67,0,0,1-1.91,2.17A18,18,0,0,1,227,82.27a12.75,12.75,0,0,1-2.68,1.19,18.77,18.77,0,0,1-3.4.72,36.57,36.57,0,0,1-4.47.24h-4.89V98.23H200.75Z"/>
        <path data-start="10" data-duration="85" d="M209.61,74h6.1q1,0,2.65-.12a9.44,9.44,0,0,0,3.09-.75A6.16,6.16,0,0,0,224,71a6.81,6.81,0,0,0,1.07-4.08,6.28,6.28,0,0,0-1.11-4,6.57,6.57,0,0,0-2.66-2,10.4,10.4,0,0,0-3.25-.75q-1.7-.12-2.89-.12h-5.55Zm-14.34-27.1h19.18a65.12,65.12,0,0,1,6.93.32,34.69,34.69,0,0,1,5,.87,15.45,15.45,0,0,1,3.53,1.35,18.78,18.78,0,0,1,2.61,1.74,17.62,17.62,0,0,1,5.19,6.93,22.12,22.12,0,0,1,1.7,8.6,23.68,23.68,0,0,1-.44,4.48,22.52,22.52,0,0,1-3.21,8,13,13,0,0,1-2.54,2.89,24.28,24.28,0,0,1-3.09,2.22,17,17,0,0,1-3.57,1.58,25,25,0,0,1-4.52,1,48.64,48.64,0,0,1-5.94.32h-6.5v18.39H195.27Z"/>
        <path data-start="10" data-duration="75" d="M207.69,73.42h7.62q1.28,0,3.31-.15a11.79,11.79,0,0,0,3.86-.94,7.69,7.69,0,0,0,3.16-2.62A8.5,8.5,0,0,0,227,64.61a7.84,7.84,0,0,0-1.38-5,8.2,8.2,0,0,0-3.31-2.52,13,13,0,0,0-4.06-.94Q216.1,56,214.62,56h-6.92Zm-17.9-33.83h23.94a81.28,81.28,0,0,1,8.66.4,43.31,43.31,0,0,1,6.23,1.09,19.29,19.29,0,0,1,4.4,1.68,23.44,23.44,0,0,1,3.26,2.18,22,22,0,0,1,6.48,8.66,27.61,27.61,0,0,1,2.13,10.73,29.56,29.56,0,0,1-.54,5.59,28.11,28.11,0,0,1-4,10,16.17,16.17,0,0,1-3.16,3.61,30.31,30.31,0,0,1-3.86,2.77,21.18,21.18,0,0,1-4.45,2,31.16,31.16,0,0,1-5.64,1.19,60.72,60.72,0,0,1-7.42.4h-8.11v22.95h-17.9Z"/>
        <path data-start="10" data-duration="65" d="M205.77,72.87h9.13q1.54,0,4-.18a14.13,14.13,0,0,0,4.63-1.13,9.22,9.22,0,0,0,3.79-3.14,10.19,10.19,0,0,0,1.6-6.11,9.4,9.4,0,0,0-1.66-6,9.83,9.83,0,0,0-4-3,15.56,15.56,0,0,0-4.86-1.13q-2.55-.18-4.33-.18h-8.3ZM184.31,32.31H213a97.44,97.44,0,0,1,10.38.47,51.92,51.92,0,0,1,7.47,1.3,23.12,23.12,0,0,1,5.28,2A28.1,28.1,0,0,1,240,38.71a26.37,26.37,0,0,1,7.77,10.38A33.1,33.1,0,0,1,250.37,62a35.44,35.44,0,0,1-.65,6.7,33.7,33.7,0,0,1-4.8,12A19.39,19.39,0,0,1,241.12,85a36.33,36.33,0,0,1-4.63,3.32,25.39,25.39,0,0,1-5.34,2.37,37.36,37.36,0,0,1-6.76,1.42,72.79,72.79,0,0,1-8.89.47h-9.73v27.51H184.31Z"/>
        <path data-start="10" data-duration="65" d="M203.86,72.32H214.5q1.79,0,4.63-.21a16.47,16.47,0,0,0,5.39-1.31A10.75,10.75,0,0,0,229,67.13,11.89,11.89,0,0,0,230.82,60q0-4.56-1.93-7a11.46,11.46,0,0,0-4.63-3.53,18.14,18.14,0,0,0-5.67-1.31q-3-.21-5-.21h-9.68ZM178.83,25h33.46a113.61,113.61,0,0,1,12.1.55,60.53,60.53,0,0,1,8.71,1.52,27,27,0,0,1,6.15,2.35,32.76,32.76,0,0,1,4.56,3,30.75,30.75,0,0,1,9.06,12.1,38.59,38.59,0,0,1,3,15,41.32,41.32,0,0,1-.76,7.81,39.28,39.28,0,0,1-5.6,14,22.6,22.6,0,0,1-4.42,5,42.36,42.36,0,0,1-5.39,3.87,29.6,29.6,0,0,1-6.22,2.77,43.55,43.55,0,0,1-7.88,1.66,84.87,84.87,0,0,1-10.37.55H203.86v32.08h-25Z"/>
        <path data-start="10" data-duration="75" d="M201.94,71.77H214.1q2,0,5.29-.24a18.82,18.82,0,0,0,6.16-1.5,12.28,12.28,0,0,0,5.05-4.18q2.13-2.92,2.13-8.13t-2.21-8a13.09,13.09,0,0,0-5.29-4,20.72,20.72,0,0,0-6.47-1.5Q215.36,44,213,44H201.94Zm-28.59-54h38.22a129.77,129.77,0,0,1,13.82.63,69.14,69.14,0,0,1,9.95,1.74,30.79,30.79,0,0,1,7,2.69,37.43,37.43,0,0,1,5.21,3.47A35.12,35.12,0,0,1,257.93,40.1a44.08,44.08,0,0,1,3.39,17.14,47.2,47.2,0,0,1-.87,8.92,44.87,44.87,0,0,1-6.4,16A25.82,25.82,0,0,1,249,87.88a48.39,48.39,0,0,1-6.16,4.42,33.81,33.81,0,0,1-7.11,3.16,49.75,49.75,0,0,1-9,1.9,96.94,96.94,0,0,1-11.85.63h-13v36.64H173.35Z"/>
        <path data-start="10" data-duration="85" d="M200,71.22H213.7q2.31,0,5.95-.27a21.16,21.16,0,0,0,6.93-1.69,13.81,13.81,0,0,0,5.68-4.71q2.4-3.29,2.4-9.15t-2.49-9a14.72,14.72,0,0,0-6-4.53,23.3,23.3,0,0,0-7.28-1.69q-3.82-.27-6.48-.27H200ZM167.87,10.47h43a145.94,145.94,0,0,1,15.54.71,77.75,77.75,0,0,1,11.19,2,34.63,34.63,0,0,1,7.9,3,42.09,42.09,0,0,1,5.86,3.91A39.5,39.5,0,0,1,263,35.6a49.58,49.58,0,0,1,3.82,19.27,53.07,53.07,0,0,1-1,10,50.46,50.46,0,0,1-7.19,17.94,29,29,0,0,1-5.68,6.48,54.41,54.41,0,0,1-6.93,5,38,38,0,0,1-8,3.55A56,56,0,0,1,227.91,100a109,109,0,0,1-13.32.71H200V141.9H167.87Z"/>
        <path data-start="10" data-duration="95" d="M198.1,70.66h15.19q2.56,0,6.61-.3a23.5,23.5,0,0,0,7.69-1.87,15.34,15.34,0,0,0,6.31-5.23q2.66-3.65,2.66-10.16t-2.76-10a16.35,16.35,0,0,0-6.61-5,25.89,25.89,0,0,0-8.09-1.87q-4.24-.29-7.2-.3H198.1ZM162.39,3.19h47.74A162.1,162.1,0,0,1,227.4,4a86.37,86.37,0,0,1,12.43,2.17,38.47,38.47,0,0,1,8.78,3.35,46.75,46.75,0,0,1,6.51,4.34A43.87,43.87,0,0,1,268,31.11a55.07,55.07,0,0,1,4.24,21.4,59,59,0,0,1-1.08,11.15,56.05,56.05,0,0,1-8,19.92,32,32,0,0,1-6.31,7.2,59.59,59.59,0,0,1-7.69,5.52,42.24,42.24,0,0,1-8.88,3.95,62.14,62.14,0,0,1-11.24,2.37,121.09,121.09,0,0,1-14.8.79H198.1v45.77H162.39Z"/>
    </g>
    <g id="o">
        <path data-start="30" data-duration="60" d="M365.13,76.07A14.58,14.58,0,0,0,366,81a12.8,12.8,0,0,0,2.41,4.17,12,12,0,0,0,3.81,2.92,11.36,11.36,0,0,0,5.09,1.1A10.7,10.7,0,0,0,382.49,88a11.55,11.55,0,0,0,3.69-3.13,14.46,14.46,0,0,0,2.95-8.58,14.81,14.81,0,0,0-2.95-8.67,11.33,11.33,0,0,0-3.72-3.16,11,11,0,0,0-5.3-1.22,11.29,11.29,0,0,0-9,4.11,13,13,0,0,0-2.29,4.14A14.34,14.34,0,0,0,365.13,76.07Zm-9.53-8.76a24.18,24.18,0,0,1,2.62-4.59,22.45,22.45,0,0,1,4.38-4.56,22.69,22.69,0,0,1,14.51-4.86,23.41,23.41,0,0,1,9.35,1.85,23.18,23.18,0,0,1,7.39,5,22.91,22.91,0,0,1,0,32.11,23.16,23.16,0,0,1-7.39,5A23.57,23.57,0,0,1,377,99.07a23.15,23.15,0,0,1-16.8-6.94A22.58,22.58,0,0,1,355.54,85a21.34,21.34,0,0,1-1.67-8.25,31,31,0,0,1,.36-4.59A20.51,20.51,0,0,1,355.6,67.31Z"/>
        <path data-start="30" data-duration="65" d="M361.16,76a19.4,19.4,0,0,0,1.11,6.54,17,17,0,0,0,3.21,5.55A16,16,0,0,0,370.55,92a15.11,15.11,0,0,0,6.78,1.47,14.23,14.23,0,0,0,6.93-1.62,15.36,15.36,0,0,0,4.91-4.16,19.24,19.24,0,0,0,3.92-11.41,19.7,19.7,0,0,0-3.92-11.53,15.08,15.08,0,0,0-5-4.2,14.65,14.65,0,0,0-7.05-1.62,15,15,0,0,0-11.93,5.47,17.3,17.3,0,0,0-3.05,5.51A19.08,19.08,0,0,0,361.16,76ZM348.48,64.38a32.16,32.16,0,0,1,3.49-6.1,29.86,29.86,0,0,1,5.82-6.06,30.19,30.19,0,0,1,19.3-6.46,31.15,31.15,0,0,1,12.44,2.46,30.83,30.83,0,0,1,9.83,6.62,30.48,30.48,0,0,1,0,42.71,30.81,30.81,0,0,1-9.83,6.62A31.36,31.36,0,0,1,377,106.62a30.8,30.8,0,0,1-22.35-9.23,30,30,0,0,1-6.26-9.51,28.38,28.38,0,0,1-2.22-11,41.23,41.23,0,0,1,.48-6.1A27.28,27.28,0,0,1,348.48,64.38Z"/>
        <path data-start="30" data-duration="70" d="M357.2,76a24.21,24.21,0,0,0,1.39,8.16,21.26,21.26,0,0,0,4,6.92,20,20,0,0,0,6.33,4.85,18.86,18.86,0,0,0,8.46,1.83,17.76,17.76,0,0,0,8.66-2,19.18,19.18,0,0,0,6.13-5.19,24,24,0,0,0,4.9-14.24,24.59,24.59,0,0,0-4.9-14.39A18.82,18.82,0,0,0,386,56.65a18.28,18.28,0,0,0-8.8-2,18.74,18.74,0,0,0-14.89,6.82,21.6,21.6,0,0,0-3.81,6.88A23.82,23.82,0,0,0,357.2,76ZM341.37,61.45a40.15,40.15,0,0,1,4.35-7.62A37.28,37.28,0,0,1,353,46.27a37.68,37.68,0,0,1,24.09-8.06,38.88,38.88,0,0,1,15.53,3.07,38.48,38.48,0,0,1,12.27,8.26,38,38,0,0,1,0,53.32,38.46,38.46,0,0,1-12.27,8.26A39.14,39.14,0,0,1,377,114.17a38.44,38.44,0,0,1-27.89-11.52,37.49,37.49,0,0,1-7.82-11.87,35.43,35.43,0,0,1-2.77-13.7,51.46,51.46,0,0,1,.59-7.62A34.06,34.06,0,0,1,341.37,61.45Z"/>
        <path data-start="30" data-duration="75" d="M353.23,76a29,29,0,0,0,1.66,9.78,25.48,25.48,0,0,0,4.8,8.3,24,24,0,0,0,7.59,5.81A22.61,22.61,0,0,0,377.43,102a21.29,21.29,0,0,0,10.38-2.43,23,23,0,0,0,7.35-6.23A28.79,28.79,0,0,0,401,76.31a29.48,29.48,0,0,0-5.87-17.26,22.56,22.56,0,0,0-7.41-6.29,21.92,21.92,0,0,0-10.55-2.43,22.47,22.47,0,0,0-17.85,8.18,25.9,25.9,0,0,0-4.57,8.24A28.56,28.56,0,0,0,353.23,76Zm-19-17.43a48.13,48.13,0,0,1,5.22-9.13,44.69,44.69,0,0,1,8.72-9.07,45.18,45.18,0,0,1,28.88-9.67,46.61,46.61,0,0,1,18.62,3.68,46.14,46.14,0,0,1,14.7,9.9A45.75,45.75,0,0,1,420,93.62a44.83,44.83,0,0,1-9.61,14.53,46.11,46.11,0,0,1-14.7,9.9A46.92,46.92,0,0,1,377,121.73a46.09,46.09,0,0,1-33.44-13.82,45,45,0,0,1-9.37-14.23,42.47,42.47,0,0,1-3.32-16.42,61.7,61.7,0,0,1,.71-9.13A40.83,40.83,0,0,1,334.26,58.52Z"/>
        <path data-start="30" data-duration="80" d="M349.27,75.91a33.84,33.84,0,0,0,1.94,11.41,29.71,29.71,0,0,0,5.6,9.68,27.94,27.94,0,0,0,8.85,6.78,26.36,26.36,0,0,0,11.82,2.56,24.83,24.83,0,0,0,12.1-2.83,26.81,26.81,0,0,0,8.57-7.26A33.56,33.56,0,0,0,405,76.33a34.37,34.37,0,0,0-6.85-20.12,26.3,26.3,0,0,0-8.64-7.33A25.56,25.56,0,0,0,377.2,46a26.2,26.2,0,0,0-20.81,9.54,30.19,30.19,0,0,0-5.32,9.61A33.29,33.29,0,0,0,349.27,75.91ZM327.15,55.59a56.12,56.12,0,0,1,6.08-10.65,52.1,52.1,0,0,1,10.16-10.58,52.67,52.67,0,0,1,33.67-11.27,54.34,54.34,0,0,1,21.71,4.29,53.79,53.79,0,0,1,17.14,11.54,53.34,53.34,0,0,1,11.2,57.59,52.27,52.27,0,0,1-11.2,16.94A53.76,53.76,0,0,1,398.77,125a54.71,54.71,0,0,1-21.85,4.29,53.74,53.74,0,0,1-39-16.11A52.4,52.4,0,0,1,327,96.58a49.52,49.52,0,0,1-3.87-19.15A71.93,71.93,0,0,1,324,66.79,47.6,47.6,0,0,1,327.15,55.59Z"/>
        <path data-start="30" data-duration="85" d="M345.31,75.87a38.66,38.66,0,0,0,2.21,13,33.94,33.94,0,0,0,6.4,11.06A31.92,31.92,0,0,0,364,107.7a30.11,30.11,0,0,0,13.5,2.92,28.36,28.36,0,0,0,13.82-3.24,30.62,30.62,0,0,0,9.79-8.29A38.34,38.34,0,0,0,409,76.35a39.27,39.27,0,0,0-7.82-23A30,30,0,0,0,391.27,45a29.19,29.19,0,0,0-14.06-3.24,29.93,29.93,0,0,0-23.77,10.9,34.49,34.49,0,0,0-6.08,11A38,38,0,0,0,345.31,75.87ZM320,52.65A64.1,64.1,0,0,1,327,40.49a59.52,59.52,0,0,1,11.61-12.08,60.16,60.16,0,0,1,38.46-12.87,62.07,62.07,0,0,1,24.8,4.9,61.44,61.44,0,0,1,19.58,13.19,60.53,60.53,0,0,1,17.37,42.56,60.53,60.53,0,0,1-17.37,42.56,61.41,61.41,0,0,1-19.58,13.19,62.49,62.49,0,0,1-25,4.9,61.38,61.38,0,0,1-44.54-18.4,59.86,59.86,0,0,1-12.48-19,56.56,56.56,0,0,1-4.42-21.87,82.16,82.16,0,0,1,.95-12.16A54.38,54.38,0,0,1,320,52.65Z"/>
        <path data-start="30" data-duration="90" d="M341.34,75.83a43.47,43.47,0,0,0,2.49,14.65A38.16,38.16,0,0,0,351,102.92a35.9,35.9,0,0,0,11.37,8.7,33.86,33.86,0,0,0,15.19,3.29,31.89,31.89,0,0,0,15.54-3.64,34.44,34.44,0,0,0,11-9.32,43.11,43.11,0,0,0,8.79-25.58,44.16,44.16,0,0,0-8.79-25.84A33.79,33.79,0,0,0,393,41.11a32.83,32.83,0,0,0-15.81-3.64,33.66,33.66,0,0,0-26.73,12.25,38.78,38.78,0,0,0-6.84,12.34A42.77,42.77,0,0,0,341.34,75.83ZM312.92,49.72A72.09,72.09,0,0,1,320.74,36a66.93,66.93,0,0,1,13.05-13.59A67.66,67.66,0,0,1,377,8a69.81,69.81,0,0,1,27.89,5.51,69.1,69.1,0,0,1,22,14.83,68.07,68.07,0,0,1,19.54,47.87A68.07,68.07,0,0,1,427,124.05a69.06,69.06,0,0,1-22,14.83,70.27,70.27,0,0,1-28.06,5.51,69,69,0,0,1-50.08-20.69,67.31,67.31,0,0,1-14-21.31,63.61,63.61,0,0,1-5-24.6,92.4,92.4,0,0,1,1.07-13.68A61.15,61.15,0,0,1,312.92,49.72Z"/>
        <path data-start="30" data-duration="95" d="M337.38,75.79a48.29,48.29,0,0,0,2.76,16.28,42.39,42.39,0,0,0,8,13.81,39.87,39.87,0,0,0,12.63,9.67,37.61,37.61,0,0,0,16.87,3.65,35.42,35.42,0,0,0,17.26-4,38.25,38.25,0,0,0,12.23-10.36,47.89,47.89,0,0,0,9.77-28.41,49,49,0,0,0-9.77-28.7,37.53,37.53,0,0,0-12.33-10.46,36.46,36.46,0,0,0-17.56-4,37.38,37.38,0,0,0-29.69,13.61,43.08,43.08,0,0,0-7.59,13.71A47.5,47.5,0,0,0,337.38,75.79Zm-31.57-29a80.07,80.07,0,0,1,8.68-15.19A74.34,74.34,0,0,1,329,16.51,75.15,75.15,0,0,1,377,.43a77.54,77.54,0,0,1,31,6.12A76.75,76.75,0,0,1,432.47,23a75.61,75.61,0,0,1,21.7,53.17,75.61,75.61,0,0,1-21.7,53.17A76.7,76.7,0,0,1,408,145.83a78.06,78.06,0,0,1-31.17,6.12,76.67,76.67,0,0,1-55.63-23,74.77,74.77,0,0,1-15.59-23.67A70.66,70.66,0,0,1,300.09,78a102.63,102.63,0,0,1,1.18-15.19A67.92,67.92,0,0,1,305.81,46.79Z"/>
    </g>
    <g id="r">
        <path data-start="50" data-duration="65" d="M538.1,76.31h4a9.46,9.46,0,0,0,4-.69,5.77,5.77,0,0,0,2.2-1.67,5.31,5.31,0,0,0,1-2.06,8.94,8.94,0,0,0,.24-1.91,5.2,5.2,0,0,0-2-4.5A8.73,8.73,0,0,0,542.21,64H538.1ZM527.32,54.15h13.94q2.92,0,5,.18a23.46,23.46,0,0,1,3.63.57,12.78,12.78,0,0,1,2.71,1,14.29,14.29,0,0,1,2.23,1.43,13.07,13.07,0,0,1,4.08,5.39,17.26,17.26,0,0,1,1.34,6.64,17.46,17.46,0,0,1-.54,4.11,13.75,13.75,0,0,1-1.82,4.2,12.93,12.93,0,0,1-3.4,3.51,12.45,12.45,0,0,1-5.21,2.06l12,15H548.41L538.22,84h-.12V98.23H527.32Z"/>
        <path data-start="50" data-duration="75" d="M536.05,76.35h5.31a12.59,12.59,0,0,0,5.27-.91,7.67,7.67,0,0,0,2.93-2.22,7.07,7.07,0,0,0,1.31-2.73,11.89,11.89,0,0,0,.32-2.54q0-4-2.66-6a11.62,11.62,0,0,0-7-1.94h-5.47ZM521.71,46.87h18.54q3.88,0,6.66.24a31.2,31.2,0,0,1,4.83.75,17,17,0,0,1,3.61,1.31,19,19,0,0,1,3,1.9,17.38,17.38,0,0,1,5.43,7.17,23,23,0,0,1,1.78,8.84,23.22,23.22,0,0,1-.71,5.47,18.29,18.29,0,0,1-2.42,5.59,17.2,17.2,0,0,1-4.52,4.68A16.56,16.56,0,0,1,551,85.54l15.93,20H549.76L536.21,86.57h-.16v18.94H521.71Z"/>
        <path data-start="50" data-duration="85" d="M534,76.39h6.63a15.71,15.71,0,0,0,6.58-1.14,9.58,9.58,0,0,0,3.66-2.77,8.82,8.82,0,0,0,1.63-3.41,14.85,14.85,0,0,0,.4-3.17q0-5-3.32-7.47A14.5,14.5,0,0,0,540.83,56H534Zm-17.9-36.8h23.15q4.85,0,8.31.3a39,39,0,0,1,6,.94,21.22,21.22,0,0,1,4.5,1.63,23.73,23.73,0,0,1,3.71,2.37,21.7,21.7,0,0,1,6.78,9,28.66,28.66,0,0,1,2.23,11,29,29,0,0,1-.89,6.83,22.83,22.83,0,0,1-3,7,21.48,21.48,0,0,1-5.64,5.84,20.66,20.66,0,0,1-8.66,3.41l19.88,24.93H551.12L534.21,89.15H534v23.64H516.1Z"/>
        <path data-start="50" data-duration="95" d="M532,76.43h7.95a18.84,18.84,0,0,0,7.89-1.36,11.48,11.48,0,0,0,4.39-3.32,10.58,10.58,0,0,0,2-4.09,17.8,17.8,0,0,0,.47-3.8q0-6-4-9T540.14,52H532ZM510.5,32.31h27.75q5.81,0,10,.36a46.7,46.7,0,0,1,7.23,1.13,25.45,25.45,0,0,1,5.4,2,28.45,28.45,0,0,1,4.45,2.85,26,26,0,0,1,8.12,10.73,34.36,34.36,0,0,1,2.67,13.22A34.75,34.75,0,0,1,575,70.73a27.37,27.37,0,0,1-3.62,8.36,25.75,25.75,0,0,1-6.76,7,24.77,24.77,0,0,1-10.38,4.09l23.84,29.89H552.48L532.2,91.72H532v28.34H510.5Z"/>
        <path data-start="50" data-duration="95" d="M529.91,76.47h9.27a22,22,0,0,0,9.2-1.59A13.38,13.38,0,0,0,553.49,71a12.33,12.33,0,0,0,2.28-4.77,20.75,20.75,0,0,0,.55-4.42q0-7.05-4.63-10.44T539.46,48h-9.54ZM504.89,25h32.35q6.77,0,11.61.41a54.44,54.44,0,0,1,8.43,1.31A29.67,29.67,0,0,1,563.58,29a33.17,33.17,0,0,1,5.18,3.32,30.33,30.33,0,0,1,9.47,12.51,40.06,40.06,0,0,1,3.11,15.42,40.52,40.52,0,0,1-1.24,9.54,31.91,31.91,0,0,1-4.22,9.75A30,30,0,0,1,568,87.73a28.88,28.88,0,0,1-12.1,4.77l27.79,34.84H553.84l-23.64-33h-.28v33h-25Z"/>
        <path data-start="50" data-duration="85" d="M527.87,76.5h10.58q6.63,0,10.5-1.82a15.29,15.29,0,0,0,5.84-4.42,14.09,14.09,0,0,0,2.61-5.45,23.7,23.7,0,0,0,.63-5.05q0-8.05-5.29-11.92t-14-3.87h-10.9ZM499.28,17.75h37q7.74,0,13.27.47a62.19,62.19,0,0,1,9.63,1.5,33.89,33.89,0,0,1,7.19,2.61,37.89,37.89,0,0,1,5.92,3.79,34.65,34.65,0,0,1,10.82,14.29A45.76,45.76,0,0,1,586.62,58a46.28,46.28,0,0,1-1.42,10.9,36.45,36.45,0,0,1-4.82,11.13,34.29,34.29,0,0,1-9,9.32,33,33,0,0,1-13.82,5.45l31.75,39.8H555.19l-27-37.75h-.32v37.75H499.28Z"/>
        <path data-start="50" data-duration="75" d="M525.82,76.54h11.9q7.46,0,11.81-2a17.19,17.19,0,0,0,6.57-5A15.84,15.84,0,0,0,559,63.4a26.66,26.66,0,0,0,.71-5.68q0-9.06-6-13.41T538.08,40H525.82ZM493.68,10.47h41.56q8.7,0,14.92.53A69.93,69.93,0,0,1,561,12.69a38.11,38.11,0,0,1,8.08,2.93,42.61,42.61,0,0,1,6.66,4.26A39,39,0,0,1,587.9,36a51.46,51.46,0,0,1,4,19.8A52,52,0,0,1,590.3,68a41,41,0,0,1-5.42,12.52A38.56,38.56,0,0,1,574.76,91a37.1,37.1,0,0,1-15.54,6.13l35.7,44.76H556.55L526.18,99.45h-.36V141.9H493.68Z"/>
        <path data-start="50" data-duration="65" d="M523.78,76.58H537q8.28,0,13.12-2.27a19.1,19.1,0,0,0,7.3-5.52A17.6,17.6,0,0,0,560.67,62a29.61,29.61,0,0,0,.79-6.31q0-10.06-6.61-14.89t-17.46-4.83H523.78ZM488.07,3.19h46.16q9.66,0,16.57.59a77.68,77.68,0,0,1,12,1.87,42.33,42.33,0,0,1,9,3.25,47.33,47.33,0,0,1,7.4,4.73A43.28,43.28,0,0,1,592.73,31.5a57.17,57.17,0,0,1,4.44,22,57.81,57.81,0,0,1-1.78,13.61,45.53,45.53,0,0,1-6,13.91,42.83,42.83,0,0,1-11.24,11.64,41.21,41.21,0,0,1-17.26,6.81l39.65,49.72H557.91L524.17,102h-.4v47.15H488.07Z"/>
    </g>
    <g id="t">
        <path data-start="60" data-duration="95" d="M689,64h-8.7V54.15h28.6V64h-8.64v34.2H689Z"/>
        <path data-start="60" data-duration="90" d="M687.12,60H675.55V46.87h38V60H702.1v45.49h-15Z"/>
        <path data-start="60" data-duration="85" d="M685.27,56H670.83V39.59h47.48V56H704v56.78h-18.7Z"/>
        <path data-start="60" data-duration="80" d="M683.42,52H666.11V32.31H723V52h-17.2v68.07H683.42Z"/>
        <path data-start="60" data-duration="75" d="M681.57,48H661.39V25h66.37V48h-20v79.36H681.57Z"/>
        <path data-start="60" data-duration="70" d="M679.72,44H656.67V17.75h75.81V44h-22.9v90.66H679.72Z"/>
        <path data-start="60" data-duration="65" d="M677.87,40H651.94V10.47H737.2V40H711.44V141.9H677.87Z"/>
        <path data-start="60" data-duration="60" d="M676,35.94h-28.8V3.19h94.7V35.94H713.31V149.18H676Z"/>
    </g>
    <g id="s-end">
        <path data-start="70" data-duration="95" d="M853.93,67q-.12-.54-.27-1.28a4.41,4.41,0,0,0-.57-1.43,3.35,3.35,0,0,0-1.16-1.13,4,4,0,0,0-2.06-.45,4.18,4.18,0,0,0-2.68,1,3,3,0,0,0-1.19,2.5,4,4,0,0,0,.3,1.67,3.61,3.61,0,0,0,1.28,1.34,20.8,20.8,0,0,0,2.77,1.55q1.79.86,4.77,2.17a28.92,28.92,0,0,1,5.09,2.8,14.33,14.33,0,0,1,3.16,3A9.38,9.38,0,0,1,865,81.94a14.11,14.11,0,0,1,.45,3.6,15.82,15.82,0,0,1-.77,4.85,11.31,11.31,0,0,1-2.56,4.32,13.39,13.39,0,0,1-4.74,3.13,22.6,22.6,0,0,1-15.16-.18,13.76,13.76,0,0,1-4.88-3.48,11.81,11.81,0,0,1-2.47-4.53,17,17,0,0,1-.69-4.59V83.64h11.2a8,8,0,0,0,.51,3.1,5,5,0,0,0,1.25,1.85,3.82,3.82,0,0,0,1.52.86,5.16,5.16,0,0,0,1.31.21,3.91,3.91,0,0,0,3.16-1.34,4.4,4.4,0,0,0,1.13-2.89,4.09,4.09,0,0,0-.39-1.85,3.88,3.88,0,0,0-1.37-1.43,18.59,18.59,0,0,0-2.65-1.4q-1.67-.74-4.23-1.82-1.19-.48-3-1.34A16.37,16.37,0,0,1,839,75.27a13.33,13.33,0,0,1-3-3.66,10.57,10.57,0,0,1-1.25-5.3,11,11,0,0,1,1.37-5.51,13.3,13.3,0,0,1,3.57-4.08,16.2,16.2,0,0,1,4.95-2.53,18.11,18.11,0,0,1,12.06.36,12.29,12.29,0,0,1,6.91,6.14,12.89,12.89,0,0,1,.86,2.26,12.2,12.2,0,0,1,.39,2.11q.09,1,.15,2Z"/>
        <path data-start="70" data-duration="85" d="M855.29,64q-.16-.71-.36-1.7a5.87,5.87,0,0,0-.75-1.9,4.46,4.46,0,0,0-1.55-1.51,5.32,5.32,0,0,0-2.73-.59,5.57,5.57,0,0,0-3.57,1.27,4.06,4.06,0,0,0-1.58,3.33,5.37,5.37,0,0,0,.4,2.22,4.8,4.8,0,0,0,1.7,1.78,27.67,27.67,0,0,0,3.69,2.06q2.38,1.15,6.34,2.89a38.47,38.47,0,0,1,6.77,3.72,19.07,19.07,0,0,1,4.2,4A12.47,12.47,0,0,1,870,83.84a18.77,18.77,0,0,1,.59,4.79,21,21,0,0,1-1,6.46,15,15,0,0,1-3.41,5.75,17.81,17.81,0,0,1-6.3,4.16,30.07,30.07,0,0,1-20.17-.24,18.3,18.3,0,0,1-6.5-4.64,15.71,15.71,0,0,1-3.29-6A22.61,22.61,0,0,1,829,88v-1.9h14.9a10.65,10.65,0,0,0,.67,4.12,6.68,6.68,0,0,0,1.66,2.46,5.07,5.07,0,0,0,2,1.15,6.86,6.86,0,0,0,1.74.28,5.2,5.2,0,0,0,4.2-1.78,5.85,5.85,0,0,0,1.51-3.84,5.44,5.44,0,0,0-.52-2.46,5.16,5.16,0,0,0-1.82-1.9,24.73,24.73,0,0,0-3.53-1.86q-2.22-1-5.63-2.42-1.59-.63-4-1.78A21.78,21.78,0,0,1,835.48,75a17.73,17.73,0,0,1-4-4.87A14.06,14.06,0,0,1,829.85,63a14.57,14.57,0,0,1,1.82-7.33,17.7,17.7,0,0,1,4.75-5.43A21.55,21.55,0,0,1,843,46.91a24.09,24.09,0,0,1,16,.48,16.35,16.35,0,0,1,9.19,8.16,17.14,17.14,0,0,1,1.15,3,16.23,16.23,0,0,1,.52,2.81q.12,1.35.2,2.61Z"/>
        <path data-start="70" data-duration="75" d="M856.66,61q-.2-.89-.45-2.13a7.33,7.33,0,0,0-.94-2.37,5.56,5.56,0,0,0-1.93-1.88,6.64,6.64,0,0,0-3.41-.74,7,7,0,0,0-4.45,1.58,5.06,5.06,0,0,0-2,4.15,6.7,6.7,0,0,0,.49,2.77,6,6,0,0,0,2.13,2.23,34.54,34.54,0,0,0,4.6,2.57q3,1.44,7.91,3.61a48,48,0,0,1,8.46,4.65,23.8,23.8,0,0,1,5.24,4.95A15.57,15.57,0,0,1,875,85.73a23.43,23.43,0,0,1,.74,6,26.27,26.27,0,0,1-1.28,8.06,18.77,18.77,0,0,1-4.25,7.17,22.23,22.23,0,0,1-7.86,5.19,37.53,37.53,0,0,1-25.18-.3,22.84,22.84,0,0,1-8.11-5.79A19.61,19.61,0,0,1,825,98.54a28.23,28.23,0,0,1-1.14-7.62V88.55h18.6a13.3,13.3,0,0,0,.84,5.14,8.33,8.33,0,0,0,2.08,3.07,6.33,6.33,0,0,0,2.52,1.43,8.56,8.56,0,0,0,2.18.35,6.49,6.49,0,0,0,5.24-2.23,7.3,7.3,0,0,0,1.88-4.8,6.8,6.8,0,0,0-.64-3.07,6.44,6.44,0,0,0-2.28-2.37,30.87,30.87,0,0,0-4.4-2.32q-2.77-1.24-7-3-2-.79-5-2.23a27.19,27.19,0,0,1-5.88-3.86A22.13,22.13,0,0,1,827,68.57a17.56,17.56,0,0,1-2.08-8.8,18.19,18.19,0,0,1,2.27-9.15,22.09,22.09,0,0,1,5.94-6.78,26.9,26.9,0,0,1,8.21-4.2,30.07,30.07,0,0,1,20,.59,20.4,20.4,0,0,1,11.47,10.19,21.4,21.4,0,0,1,1.43,3.76,20.26,20.26,0,0,1,.64,3.51q.15,1.68.25,3.26Z"/>
        <path data-start="70" data-duration="65" d="M858,57.92q-.24-1.07-.54-2.55a8.79,8.79,0,0,0-1.13-2.85,6.67,6.67,0,0,0-2.31-2.25,8,8,0,0,0-4.09-.89,8.33,8.33,0,0,0-5.34,1.9,6.07,6.07,0,0,0-2.37,5,8,8,0,0,0,.59,3.32,7.18,7.18,0,0,0,2.55,2.67,41.41,41.41,0,0,0,5.52,3.08q3.56,1.72,9.49,4.33a57.56,57.56,0,0,1,10.14,5.57,28.53,28.53,0,0,1,6.29,5.93,18.66,18.66,0,0,1,3.2,6.46,28.09,28.09,0,0,1,.89,7.17,31.49,31.49,0,0,1-1.54,9.66,22.51,22.51,0,0,1-5.1,8.6,26.65,26.65,0,0,1-9.43,6.23,38.1,38.1,0,0,1-14.53,2.43q-9.49,0-15.66-2.79a27.39,27.39,0,0,1-9.72-6.94,23.51,23.51,0,0,1-4.92-9,33.84,33.84,0,0,1-1.36-9.13V91H841a15.94,15.94,0,0,0,1,6.17,10,10,0,0,0,2.49,3.68,7.59,7.59,0,0,0,3,1.72,10.27,10.27,0,0,0,2.61.41,7.78,7.78,0,0,0,6.29-2.67,8.76,8.76,0,0,0,2.25-5.75,8.15,8.15,0,0,0-.77-3.68A7.72,7.72,0,0,0,855.12,88a37,37,0,0,0-5.28-2.79q-3.32-1.48-8.42-3.62-2.37-.95-6-2.67a32.6,32.6,0,0,1-7.06-4.62,26.53,26.53,0,0,1-5.93-7.29A21,21,0,0,1,820,56.5a21.81,21.81,0,0,1,2.73-11,26.48,26.48,0,0,1,7.12-8.12,32.25,32.25,0,0,1,9.84-5,36.05,36.05,0,0,1,24,.71A24.46,24.46,0,0,1,877.42,45.3a25.65,25.65,0,0,1,1.72,4.51,24.28,24.28,0,0,1,.77,4.21q.18,2,.3,3.91Z"/>
        <path data-start="70" data-duration="65" d="M859.4,54.9q-.28-1.24-.62-3a10.25,10.25,0,0,0-1.31-3.32,7.77,7.77,0,0,0-2.7-2.63,9.29,9.29,0,0,0-4.77-1,9.71,9.71,0,0,0-6.22,2.21A7.08,7.08,0,0,0,841,53a9.37,9.37,0,0,0,.69,3.87,8.38,8.38,0,0,0,3,3.11,48.28,48.28,0,0,0,6.43,3.59q4.15,2,11.06,5A67.11,67.11,0,0,1,874,75.08,33.27,33.27,0,0,1,881.31,82,21.76,21.76,0,0,1,885,89.53a32.75,32.75,0,0,1,1,8.36,36.72,36.72,0,0,1-1.8,11.27,26.24,26.24,0,0,1-5.95,10,31.07,31.07,0,0,1-11,7.26q-6.85,2.83-16.94,2.84-11.06,0-18.25-3.25a31.93,31.93,0,0,1-11.34-8.09,27.41,27.41,0,0,1-5.74-10.51,39.45,39.45,0,0,1-1.59-10.65V93.47h26a18.59,18.59,0,0,0,1.17,7.19,11.65,11.65,0,0,0,2.9,4.29,8.85,8.85,0,0,0,3.53,2,12,12,0,0,0,3,.48,9.08,9.08,0,0,0,7.33-3.11,10.21,10.21,0,0,0,2.63-6.71,9.5,9.5,0,0,0-.9-4.29A9,9,0,0,0,856,90a43.14,43.14,0,0,0-6.15-3.25Q846,85,840,82.55q-2.77-1.1-7-3.11A38,38,0,0,1,824.83,74a30.93,30.93,0,0,1-6.91-8.5,24.54,24.54,0,0,1-2.9-12.3,25.43,25.43,0,0,1,3.18-12.79,30.87,30.87,0,0,1,8.3-9.47A37.6,37.6,0,0,1,838,25.1a42,42,0,0,1,28,.83,28.52,28.52,0,0,1,16,14.24,29.91,29.91,0,0,1,2,5.25,28.31,28.31,0,0,1,.9,4.91q.21,2.35.35,4.56Z"/>
        <path data-start="70" data-duration="75" d="M860.76,51.87q-.32-1.42-.71-3.39a11.7,11.7,0,0,0-1.5-3.79,8.88,8.88,0,0,0-3.08-3A10.61,10.61,0,0,0,850,40.49,11.09,11.09,0,0,0,842.91,43a8.08,8.08,0,0,0-3.16,6.63,10.7,10.7,0,0,0,.79,4.42,9.57,9.57,0,0,0,3.4,3.55,55.15,55.15,0,0,0,7.34,4.11Q856,64,863.92,67.5a76.66,76.66,0,0,1,13.5,7.42,38,38,0,0,1,8.37,7.9,24.86,24.86,0,0,1,4.26,8.61,37.41,37.41,0,0,1,1.18,9.55,41.94,41.94,0,0,1-2.05,12.87,30,30,0,0,1-6.79,11.45,35.49,35.49,0,0,1-12.55,8.29q-7.82,3.24-19.35,3.24-12.64,0-20.85-3.71a36.47,36.47,0,0,1-12.95-9.24,31.31,31.31,0,0,1-6.56-12,45.07,45.07,0,0,1-1.82-12.16V95.93H838a21.23,21.23,0,0,0,1.34,8.21,13.31,13.31,0,0,0,3.32,4.9,10.11,10.11,0,0,0,4,2.29,13.67,13.67,0,0,0,3.47.55,10.37,10.37,0,0,0,8.37-3.55,11.66,11.66,0,0,0,3-7.66,10.85,10.85,0,0,0-1-4.9A10.28,10.28,0,0,0,856.89,92a49.28,49.28,0,0,0-7-3.71q-4.42-2-11.21-4.82-3.16-1.26-8-3.55a43.41,43.41,0,0,1-9.4-6.16,35.34,35.34,0,0,1-7.9-9.71A28,28,0,0,1,810.06,50a29,29,0,0,1,3.63-14.61,35.27,35.27,0,0,1,9.48-10.82,43,43,0,0,1,13.11-6.71,48,48,0,0,1,32,.95A32.58,32.58,0,0,1,886.59,35a34.16,34.16,0,0,1,2.29,6,32.34,32.34,0,0,1,1,5.61q.24,2.69.39,5.21Z"/>
        <path data-start="70" data-duration="85" d="M862.13,48.84q-.36-1.6-.8-3.82a13.16,13.16,0,0,0-1.69-4.26,10,10,0,0,0-3.46-3.37A11.93,11.93,0,0,0,850.05,36a12.47,12.47,0,0,0-8,2.84,9.09,9.09,0,0,0-3.55,7.46,12,12,0,0,0,.89,5,10.76,10.76,0,0,0,3.82,4,62,62,0,0,0,8.26,4.62q5.33,2.58,14.21,6.48a86.21,86.21,0,0,1,15.18,8.35,42.73,42.73,0,0,1,9.41,8.88,28,28,0,0,1,4.79,9.68,42.07,42.07,0,0,1,1.33,10.75,47.16,47.16,0,0,1-2.31,14.47,33.71,33.71,0,0,1-7.64,12.88,39.92,39.92,0,0,1-14.12,9.32q-8.79,3.64-21.76,3.64-14.21,0-23.45-4.17a41,41,0,0,1-14.56-10.39,35.21,35.21,0,0,1-7.37-13.5,50.68,50.68,0,0,1-2-13.67V98.39h33.39a23.88,23.88,0,0,0,1.51,9.24,15,15,0,0,0,3.73,5.51,11.37,11.37,0,0,0,4.53,2.58,15.38,15.38,0,0,0,3.91.62q6,0,9.41-4a13.11,13.11,0,0,0,3.38-8.61,12.2,12.2,0,0,0-1.16-5.51,11.56,11.56,0,0,0-4.09-4.26,55.42,55.42,0,0,0-7.9-4.17q-5-2.22-12.61-5.42-3.56-1.42-9-4a48.82,48.82,0,0,1-10.57-6.93,39.74,39.74,0,0,1-8.88-10.92,31.52,31.52,0,0,1-3.73-15.81,32.67,32.67,0,0,1,4.08-16.43,39.66,39.66,0,0,1,10.66-12.17,48.3,48.3,0,0,1,14.74-7.55,54,54,0,0,1,36,1.07,36.63,36.63,0,0,1,20.6,18.29,38.42,38.42,0,0,1,2.57,6.75A36.37,36.37,0,0,1,894.9,43q.27,3,.44,5.86Z"/>
        <path data-start="70" data-duration="95" d="M863.5,45.81q-.4-1.77-.89-4.24a14.62,14.62,0,0,0-1.87-4.74,11.09,11.09,0,0,0-3.85-3.75,13.25,13.25,0,0,0-6.81-1.48,13.86,13.86,0,0,0-8.88,3.16A10.1,10.1,0,0,0,837.26,43a13.37,13.37,0,0,0,1,5.52A12,12,0,0,0,842.49,53a68.89,68.89,0,0,0,9.17,5.13q5.92,2.86,15.78,7.2a95.76,95.76,0,0,1,16.87,9.27,47.46,47.46,0,0,1,10.46,9.86,31,31,0,0,1,5.33,10.75,46.73,46.73,0,0,1,1.48,11.94A52.39,52.39,0,0,1,899,123.24a37.44,37.44,0,0,1-8.48,14.3,44.34,44.34,0,0,1-15.68,10.36q-9.77,4-24.17,4-15.79,0-26-4.64a45.56,45.56,0,0,1-16.18-11.54,39.11,39.11,0,0,1-8.19-15A56.3,56.3,0,0,1,798,105.58v-4.74h37.09a26.52,26.52,0,0,0,1.68,10.26,16.62,16.62,0,0,0,4.14,6.12,12.63,12.63,0,0,0,5,2.86,17.08,17.08,0,0,0,4.34.69q6.7,0,10.46-4.44a14.57,14.57,0,0,0,3.75-9.57,13.55,13.55,0,0,0-1.28-6.12,12.84,12.84,0,0,0-4.54-4.74,61.56,61.56,0,0,0-8.78-4.64q-5.53-2.47-14-6-4-1.57-10-4.44a54.23,54.23,0,0,1-11.74-7.69A44.14,44.14,0,0,1,804.31,61q-4.14-7.3-4.14-17.56a36.28,36.28,0,0,1,4.54-18.25,44.05,44.05,0,0,1,11.84-13.52,53.65,53.65,0,0,1,16.38-8.38,60,60,0,0,1,40,1.18A40.69,40.69,0,0,1,895.75,24.8a42.67,42.67,0,0,1,2.86,7.5,40.4,40.4,0,0,1,1.28,7q.29,3.36.49,6.51Z"/>
    </g>
</svg>