<svg xmlns="http://www.w3.org/2000/svg">
  
  <symbol id="connected" viewBox="0 0 27.56 49.08">
    <title>connected</title>
    <g id="connected-g" fill="currentColor"><path d="M22.73,21.52H15V18.1A3.71,3.71,0,0,0,17.22,15a3.35,3.35,0,0,0-3.36-3.3A3.45,3.45,0,0,0,10.4,15a3.66,3.66,0,0,0,2.12,3.14v3.42H4.95A5,5,0,0,0,0,26.46V44.25a4.94,4.94,0,0,0,4.95,4.83H22.73a4.83,4.83,0,0,0,4.83-4.83V26.46A4.94,4.94,0,0,0,22.73,21.52Zm-8.92-7.83A1.27,1.27,0,1,1,12.54,15,1.27,1.27,0,0,1,13.81,13.68Zm11.74,30.6a2.79,2.79,0,0,1-2.79,2.79H4.8A2.79,2.79,0,0,1,2,44.28v-18A2.79,2.79,0,0,1,4.8,23.52h18a2.79,2.79,0,0,1,2.79,2.79Z"/><path d="M7.16,41.07a0,0,0,0,1,0,0,0,0,0,0,1,.08,0A0,0,0,0,1,7.16,41.07Z"/><path d="M2,7.5a1,1,0,0,0,1.42-.21,13.1,13.1,0,0,1,4.5-3.82,13,13,0,0,1,11.84,0,13.1,13.1,0,0,1,4.49,3.8A1,1,0,0,0,25.85,6a15.14,15.14,0,0,0-5.19-4.39A14.86,14.86,0,0,0,13.81,0,15,15,0,0,0,1.75,6.07,1,1,0,0,0,2,7.5Z"/><path d="M21.13,9.56a1,1,0,1,0,1.63-1.22,11.15,11.15,0,0,0-17.88,0A1,1,0,0,0,6.5,9.56,9.2,9.2,0,0,1,9.66,6.89a9.14,9.14,0,0,1,8.31,0A9.22,9.22,0,0,1,21.13,9.56Z"/><path d="M13.81,8a7,7,0,0,0-5.6,2.82,1,1,0,0,0,1.64,1.21,4.93,4.93,0,0,1,7.9,0,1,1,0,0,0,1.62-1.23A6.92,6.92,0,0,0,13.81,8Z"/></g>
  </symbol>
  
  <symbol id="mobile" viewBox="0 0 26.73 49">
    <title>mobile</title>
    <g id="mobile-g" fill="currentColor"><path d="M22.76,0H4A4,4,0,0,0,0,4V45a4,4,0,0,0,4,4H22.76a4,4,0,0,0,4-4V4A4,4,0,0,0,22.76,0ZM4,1.74H22.76A2.23,2.23,0,0,1,25,4V7.65H1.74V4A2.23,2.23,0,0,1,4,1.74ZM25,8.81V37.48H1.74V8.81ZM22.76,47.26H4A2.23,2.23,0,0,1,1.74,45V38.64H25V45A2.23,2.23,0,0,1,22.76,47.26Z"/><circle cx="13.36" cy="42.71" r="1.74"/><circle cx="20.72" cy="4.75" r="0.97"/><path d="M5.1,19.29h5.84a1.57,1.57,0,0,0,1.57-1.57V11.88a1.57,1.57,0,0,0-1.57-1.57H5.1a1.57,1.57,0,0,0-1.57,1.57v5.84A1.57,1.57,0,0,0,5.1,19.29Zm-.41-7.4a.41.41,0,0,1,.41-.41h5.84a.41.41,0,0,1,.41.41v5.84a.41.41,0,0,1-.41.41H5.1a.41.41,0,0,1-.41-.41Z"/><path d="M16,19.29h5.84a1.57,1.57,0,0,0,1.57-1.57V11.88a1.57,1.57,0,0,0-1.57-1.57H16a1.57,1.57,0,0,0-1.57,1.57v5.84A1.57,1.57,0,0,0,16,19.29Zm-.41-7.4a.41.41,0,0,1,.41-.41h5.84a.41.41,0,0,1,.41.41v5.84a.41.41,0,0,1-.41.41H16a.41.41,0,0,1-.41-.41Z"/><path d="M5.1,29.57h5.84A1.57,1.57,0,0,0,12.51,28V22.16a1.57,1.57,0,0,0-1.57-1.57H5.1a1.57,1.57,0,0,0-1.57,1.57V28A1.57,1.57,0,0,0,5.1,29.57Zm-.41-7.4a.41.41,0,0,1,.41-.41h5.84a.41.41,0,0,1,.41.41V28a.41.41,0,0,1-.41.41H5.1A.41.41,0,0,1,4.7,28Z"/><path d="M16,29.57h5.84A1.57,1.57,0,0,0,23.38,28V22.16a1.57,1.57,0,0,0-1.57-1.57H16a1.57,1.57,0,0,0-1.57,1.57V28A1.57,1.57,0,0,0,16,29.57Zm-.41-7.4a.41.41,0,0,1,.41-.41h5.84a.41.41,0,0,1,.41.41V28a.41.41,0,0,1-.41.41H16a.41.41,0,0,1-.41-.41Z"/><path d="M22.37,33.12a.58.58,0,0,0,0-1.16H4.65a.58.58,0,1,0,0,1.16"/><path d="M22.37,34.48H4.65a.58.58,0,1,0,0,1.16H22.37a.58.58,0,0,0,0-1.16Z"/></g>
  </symbol>

  <symbol id="esport" viewBox="0 0 36 30">
    <title>E-sport</title>
    <g id="esport-g" fill="currentColor"><path d="M35,12.41A7,7,0,0,0,23.11,8H20.05a2,2,0,0,0-4,0H12.9A7,7,0,0,0,1,12.41L0,24.58a5.13,5.13,0,0,0,0,1A5,5,0,0,0,4.58,30L5,30a5,5,0,0,0,4.59-3l1.72-4H24.69l1.72,4A5,5,0,0,0,31,30l.39,0A5,5,0,0,0,36,25.58a5.11,5.11,0,0,0,0-1ZM33,25.24A2,2,0,0,1,31.17,27H31a2,2,0,0,1-1.84-1.21l-1.72-4L26.67,20H9.34l-.78,1.81-1.72,4A2,2,0,0,1,5,27H4.82A2,2,0,0,1,3,25.24a2.14,2.14,0,0,1,0-.41L4,12.66A4,4,0,0,1,8,9a4,4,0,0,1,2.8,1.14l.87.86H24.33l.87-.86A4,4,0,0,1,28,9a4,4,0,0,1,4,3.66l1,12.17A2.1,2.1,0,0,1,33,25.24Z"/><polygon points="9 11 7 11 7 13 5 13 5 15 7 15 7 17 9 17 9 15 11 15 11 13 9 13 9 11"/><rect x="14" y="16" width="3" height="2"/><rect x="19" y="16" width="3" height="2"/><circle cx="28" cy="12" r="1"/><circle cx="26" cy="14" r="1"/><circle cx="30" cy="14" r="1"/><circle cx="28" cy="16" r="1"/><path d="M15.93,5.88a3,3,0,0,1,4.24,0l1.41-1.41a5,5,0,0,0-7.07,0Z"/><path d="M23.71,2.34a8,8,0,0,0-11.32,0l1.41,1.41a6,6,0,0,1,8.49,0Z"/></g>
  </symbol>

  <symbol id="vr" viewBox="0 0 50.96 26.11">
    <title>VR</title>
    <g id="vr-g" fill="currentColor"><path d="M15.78,8.48a5,5,0,1,0,5,5,5,5,0,0,0-5-5m0,8.83a3.84,3.84,0,1,1,3.84-3.84,3.84,3.84,0,0,1-3.84,3.84M35.25,8.48a5,5,0,1,0,5,5,5,5,0,0,0-5-5m0,8.83a3.84,3.84,0,1,1,3.84-3.84,3.84,3.84,0,0,1-3.84,3.84M40,4.9H10.94A3.35,3.35,0,0,0,7.59,8.25v11.2a3.35,3.35,0,0,0,3.35,3.35h5.92c2.2,0,3.74-1.46,5.11-2.74,1.15-1.08,2.24-2.11,3.52-2.11s2.26,1,3.41,2.06c1.36,1.31,2.9,2.78,5.22,2.78H40a3.35,3.35,0,0,0,3.35-3.35V8.25A3.35,3.35,0,0,0,40,4.9m2.19,14.55A2.2,2.2,0,0,1,40,21.64H34.11c-1.85,0-3.15-1.25-4.42-2.46s-2.49-2.39-4.21-2.39-3,1.23-4.31,2.42-2.58,2.43-4.32,2.43H10.94a2.2,2.2,0,0,1-2.19-2.19V8.25a2.2,2.2,0,0,1,2.19-2.19H40a2.2,2.2,0,0,1,2.19,2.19v11.2Zm6.69-10.7h0a7,7,0,0,0-7-6.42h-6A3.17,3.17,0,0,0,32.7,0H18.27c-1.77,0-2.52.81-3.2,2.31h-6a7,7,0,0,0-7,6.42h0C1.09,9.35,0,10,0,11.69v3.26a3,3,0,0,0,1.7,2.66l.35.25v.22c0,3.87,3.15,8,7,8H41.89c3.87,0,7-4.15,7-8v-.22l.35-.25A3,3,0,0,0,51,14.95V11.69c0-1.64-1.09-2.33-2.06-2.95M2,16.44a1.66,1.66,0,0,1-.89-1.49V11.69A1.76,1.76,0,0,1,2,10.13ZM18.27,1.15H32.7a1.88,1.88,0,0,1,1.93,1.15H16.35a1.82,1.82,0,0,1,1.91-1.15M47.76,18.09c0,3.24-2.63,6.87-5.87,6.87H9.07C5.84,25,3.2,21.32,3.2,18.09V9.33A5.87,5.87,0,0,1,9.07,3.46H41.89a5.87,5.87,0,0,1,5.87,5.87Zm2-3.14a1.67,1.67,0,0,1-.89,1.49V10.13a1.76,1.76,0,0,1,.89,1.55Z"/></g>
  </symbol>

  <symbol id="interactive" viewBox="0 0 30.94 30.93">
    <title>Interactive</title>
    <g id="interactive-g" fill="currentColor"><path d="M16.5,3.8a1,1,0,1,1-2.06,0V1.1a1,1,0,1,1,2.06,0Z"/><path d="M14.44,27.14a1,1,0,1,1,2.06,0v2.7a1,1,0,1,1-2.06,0Z"/><path d="M3.8,14.43a1,1,0,1,1,0,2.06H1.1a1,1,0,1,1,0-2.06Z"/><path d="M27.14,16.5a1,1,0,1,1,0-2.06h2.7a1,1,0,1,1,0,2.06Z"/><path d="M24.45,7.94A1,1,0,1,1,23,6.49L24.9,4.58A1,1,0,1,1,26.36,6Z"/><path d="M6.49,23a1,1,0,1,1,1.46,1.46L6,26.35a1.07,1.07,0,0,1-1.51,0,1.07,1.07,0,0,1,.05-1.51Z"/><path d="M7.95,6.49A1,1,0,1,1,6.49,7.94L4.58,6a1.08,1.08,0,0,1,0-1.51A1.07,1.07,0,0,1,6,4.58Z"/><path d="M23,24.45A1,1,0,1,1,24.45,23l1.91,1.91a1,1,0,1,1-1.46,1.46Z"/></g>
  </symbol>
  
</svg>